<svg height="660" width="660"
    xmlns="http://www.w3.org/2000/svg"
    xmlns:xlink="http://www.w3.org/1999/xlink"
    xmlns:ev="http://www.w3.org/2001/xml-events">
<title>Original Top Strand</title>
<rect x="0" y="0" width="660" height="660" fill="white" />
<text x="330" y="20" text-anchor="middle">Original Top Strand</text>
<line x1="80" y1="80" x2="80" y2="580" stroke="black" />
<line x1="80" y1="580" x2="580" y2="580" stroke="black" />
<text x="15" y="330" transform="rotate(270 15, 330)" text-anchor="middle" dominant-baseline="text-before-edge">CpG Methylation %</text>
<text x="330" y="620" text-anchor="middle">Position along mapped read (5'->3' of + strand)</text>
<line x1="80" y1="580" x2="80" y2="585" stroke="black" />
<text x="80" y="600" text-anchor="middle">0</text>
<line x1="113.333333" y1="80" x2="113.333333" y2="580" stroke-dasharray="5 5" stroke="grey" />
<line x1="113.333333" y1="580" x2="113.333333" y2="585" stroke="black" />
<text x="113.333333" y="600" text-anchor="middle">10</text>
<line x1="146.666667" y1="80" x2="146.666667" y2="580" stroke-dasharray="5 5" stroke="grey" />
<line x1="146.666667" y1="580" x2="146.666667" y2="585" stroke="black" />
<text x="146.666667" y="600" text-anchor="middle">20</text>
<line x1="180.000000" y1="80" x2="180.000000" y2="580" stroke-dasharray="5 5" stroke="grey" />
<line x1="180.000000" y1="580" x2="180.000000" y2="585" stroke="black" />
<text x="180.000000" y="600" text-anchor="middle">30</text>
<line x1="213.333333" y1="80" x2="213.333333" y2="580" stroke-dasharray="5 5" stroke="grey" />
<line x1="213.333333" y1="580" x2="213.333333" y2="585" stroke="black" />
<text x="213.333333" y="600" text-anchor="middle">40</text>
<line x1="246.666667" y1="80" x2="246.666667" y2="580" stroke-dasharray="5 5" stroke="grey" />
<line x1="246.666667" y1="580" x2="246.666667" y2="585" stroke="black" />
<text x="246.666667" y="600" text-anchor="middle">50</text>
<line x1="280.000000" y1="80" x2="280.000000" y2="580" stroke-dasharray="5 5" stroke="grey" />
<line x1="280.000000" y1="580" x2="280.000000" y2="585" stroke="black" />
<text x="280.000000" y="600" text-anchor="middle">60</text>
<line x1="313.333333" y1="80" x2="313.333333" y2="580" stroke-dasharray="5 5" stroke="grey" />
<line x1="313.333333" y1="580" x2="313.333333" y2="585" stroke="black" />
<text x="313.333333" y="600" text-anchor="middle">70</text>
<line x1="346.666667" y1="80" x2="346.666667" y2="580" stroke-dasharray="5 5" stroke="grey" />
<line x1="346.666667" y1="580" x2="346.666667" y2="585" stroke="black" />
<text x="346.666667" y="600" text-anchor="middle">80</text>
<line x1="380.000000" y1="80" x2="380.000000" y2="580" stroke-dasharray="5 5" stroke="grey" />
<line x1="380.000000" y1="580" x2="380.000000" y2="585" stroke="black" />
<text x="380.000000" y="600" text-anchor="middle">90</text>
<line x1="413.333333" y1="80" x2="413.333333" y2="580" stroke-dasharray="5 5" stroke="grey" />
<line x1="413.333333" y1="580" x2="413.333333" y2="585" stroke="black" />
<text x="413.333333" y="600" text-anchor="middle">100</text>
<line x1="446.666667" y1="80" x2="446.666667" y2="580" stroke-dasharray="5 5" stroke="grey" />
<line x1="446.666667" y1="580" x2="446.666667" y2="585" stroke="black" />
<text x="446.666667" y="600" text-anchor="middle">110</text>
<line x1="480.000000" y1="80" x2="480.000000" y2="580" stroke-dasharray="5 5" stroke="grey" />
<line x1="480.000000" y1="580" x2="480.000000" y2="585" stroke="black" />
<text x="480.000000" y="600" text-anchor="middle">120</text>
<line x1="513.333333" y1="80" x2="513.333333" y2="580" stroke-dasharray="5 5" stroke="grey" />
<line x1="513.333333" y1="580" x2="513.333333" y2="585" stroke="black" />
<text x="513.333333" y="600" text-anchor="middle">130</text>
<line x1="546.666667" y1="80" x2="546.666667" y2="580" stroke-dasharray="5 5" stroke="grey" />
<line x1="546.666667" y1="580" x2="546.666667" y2="585" stroke="black" />
<text x="546.666667" y="600" text-anchor="middle">140</text>
<line x1="580.000000" y1="80" x2="580.000000" y2="580" stroke-dasharray="5 5" stroke="grey" />
<line x1="580.000000" y1="580" x2="580.000000" y2="585" stroke="black" />
<text x="580.000000" y="600" text-anchor="middle">150</text>
<line x1="80" y1="580.000000" x2="75" y2="580.000000" stroke="black" />
<text x="55" y="580.000000" text-anchor="middle" dominant-baseline="middle">0.00</text>
<line x1="80" y1="555.000000" x2="75" y2="555.000000" stroke="black" />
<text x="55" y="555.000000" text-anchor="middle" dominant-baseline="middle">0.05</text>
<line x1="80" y1="530.000000" x2="75" y2="530.000000" stroke="black" />
<text x="55" y="530.000000" text-anchor="middle" dominant-baseline="middle">0.10</text>
<line x1="80" y1="505.000000" x2="75" y2="505.000000" stroke="black" />
<text x="55" y="505.000000" text-anchor="middle" dominant-baseline="middle">0.15</text>
<line x1="80" y1="480.000000" x2="75" y2="480.000000" stroke="black" />
<text x="55" y="480.000000" text-anchor="middle" dominant-baseline="middle">0.20</text>
<line x1="80" y1="455.000000" x2="75" y2="455.000000" stroke="black" />
<text x="55" y="455.000000" text-anchor="middle" dominant-baseline="middle">0.25</text>
<line x1="80" y1="430.000000" x2="75" y2="430.000000" stroke="black" />
<text x="55" y="430.000000" text-anchor="middle" dominant-baseline="middle">0.30</text>
<line x1="80" y1="405.000000" x2="75" y2="405.000000" stroke="black" />
<text x="55" y="405.000000" text-anchor="middle" dominant-baseline="middle">0.35</text>
<line x1="80" y1="380.000000" x2="75" y2="380.000000" stroke="black" />
<text x="55" y="380.000000" text-anchor="middle" dominant-baseline="middle">0.40</text>
<line x1="80" y1="355.000000" x2="75" y2="355.000000" stroke="black" />
<text x="55" y="355.000000" text-anchor="middle" dominant-baseline="middle">0.45</text>
<line x1="80" y1="330.000000" x2="75" y2="330.000000" stroke="black" />
<text x="55" y="330.000000" text-anchor="middle" dominant-baseline="middle">0.50</text>
<line x1="80" y1="305.000000" x2="75" y2="305.000000" stroke="black" />
<text x="55" y="305.000000" text-anchor="middle" dominant-baseline="middle">0.55</text>
<line x1="80" y1="280.000000" x2="75" y2="280.000000" stroke="black" />
<text x="55" y="280.000000" text-anchor="middle" dominant-baseline="middle">0.60</text>
<line x1="80" y1="255.000000" x2="75" y2="255.000000" stroke="black" />
<text x="55" y="255.000000" text-anchor="middle" dominant-baseline="middle">0.65</text>
<line x1="80" y1="230.000000" x2="75" y2="230.000000" stroke="black" />
<text x="55" y="230.000000" text-anchor="middle" dominant-baseline="middle">0.70</text>
<line x1="80" y1="205.000000" x2="75" y2="205.000000" stroke="black" />
<text x="55" y="205.000000" text-anchor="middle" dominant-baseline="middle">0.75</text>
<line x1="80" y1="180.000000" x2="75" y2="180.000000" stroke="black" />
<text x="55" y="180.000000" text-anchor="middle" dominant-baseline="middle">0.80</text>
<line x1="80" y1="155.000000" x2="75" y2="155.000000" stroke="black" />
<text x="55" y="155.000000" text-anchor="middle" dominant-baseline="middle">0.85</text>
<line x1="80" y1="130.000000" x2="75" y2="130.000000" stroke="black" />
<text x="55" y="130.000000" text-anchor="middle" dominant-baseline="middle">0.90</text>
<line x1="80" y1="105.000000" x2="75" y2="105.000000" stroke="black" />
<text x="55" y="105.000000" text-anchor="middle" dominant-baseline="middle">0.95</text>
<line x1="80" y1="80.000000" x2="75" y2="80.000000" stroke="black" />
<text x="55" y="80.000000" text-anchor="middle" dominant-baseline="middle">1.00</text>
<path d="M 83.333333 488.823512
  L 86.666667 445.730035
  L 90.000000 417.747626
  L 93.333333 396.707488
  L 96.666667 442.313109
  L 100.000000 455.706602
  L 103.333333 510.254523
  L 106.666667 469.744002
  L 110.000000 461.734587
  L 113.333333 470.045861
  L 116.666667 417.644763
  L 120.000000 483.215056
  L 123.333333 430.413314
  L 126.666667 429.786386
  L 130.000000 417.644763
  L 133.333333 374.420104
  L 136.666667 474.421236
  L 140.000000 430.413314
  L 143.333333 452.662095
  L 146.666667 417.747626
  L 150.000000 369.160211
  L 153.333333 501.900342
  L 156.666667 519.812069
  L 160.000000 508.869056
  L 163.333333 430.413314
  L 166.666667 416.603239
  L 170.000000 398.170924
  L 173.333333 408.011935
  L 176.666667 488.823512
  L 180.000000 430.031773
  L 183.333333 458.885708
  L 186.666667 461.734587
  L 190.000000 545.071006
  L 193.333333 485.414880
  L 196.666667 458.083142
  L 200.000000 519.812069
  L 203.333333 501.900342
  L 206.666667 430.031773
  L 210.000000 528.660569
  L 213.333333 429.786386
  L 216.666667 465.362896
  L 220.000000 416.603239
  L 223.333333 444.128203
  L 226.666667 427.826162
  L 230.000000 416.603239
  L 233.333333 405.735464
  L 236.666667 417.644763
  L 240.000000 469.744002
  L 243.333333 417.747626
  L 246.666667 482.068047
  L 250.000000 545.071006
  L 253.333333 398.170924
  L 256.666667 462.145213
  L 260.000000 479.611754
  L 263.333333 514.699047
  L 266.666667 455.706602
  L 270.000000 394.607128
  L 273.333333 436.585923
  L 276.666667 396.707488
  L 280.000000 429.786386
  L 283.333333 501.427208
  L 286.666667 488.921648
  L 290.000000 452.662095
  L 293.333333 474.421236
  L 296.666667 519.812069
  L 300.000000 458.885708
  L 303.333333 452.662095
  L 306.666667 416.603239
  L 310.000000 474.791116
  L 313.333333 428.887778
  L 316.666667 510.501624
  L 320.000000 428.887778
  L 323.333333 511.986526
  L 326.666667 465.708273
  L 330.000000 514.699047
  L 333.333333 417.644763
  L 336.666667 494.438772
  L 340.000000 417.644763
  L 343.333333 449.773101
  L 346.666667 470.045861
  L 350.000000 449.773101
  L 353.333333 427.826162
  L 356.666667 458.885708
  L 360.000000 528.660569
  L 363.333333 440.408896
  L 366.666667 558.828847
  L 370.000000 469.744002
  L 373.333333 444.128203
  L 376.666667 455.706602
  L 380.000000 380.418085
  L 383.333333 478.161652
  L 386.666667 418.053410
  L 390.000000 430.413314
  L 393.333333 501.900342
  L 396.666667 564.122878
  L 400.000000 469.744002
  L 403.333333 407.819055
  L 406.666667 424.240450
  L 410.000000 528.660569
  L 413.333333 452.662095
  L 416.666667 442.313109
  L 420.000000 438.486300
  L 423.333333 449.773101
  L 426.666667 532.565067
  L 430.000000 405.735464
  L 433.333333 474.791116
  L 436.666667 418.053410
  L 440.000000 417.747626
  L 443.333333 495.096687
  L 446.666667 430.031773
  L 450.000000 407.047363
  L 453.333333 403.644371
  L 456.666667 455.706602
  L 460.000000 405.735464
  L 463.333333 485.414880
  L 466.666667 429.786386
  L 470.000000 499.402547
  L 473.333333 353.698183
  L 476.666667 482.068047
  L 480.000000 502.177194
  L 483.333333 510.254523
  L 486.666667 491.957397
  L 490.000000 445.730035
  L 493.333333 470.045861
  L 496.666667 488.823512
  L 500.000000 403.644371
  L 503.333333 430.413314
  L 506.666667 455.706602
  L 510.000000 494.438772
  L 513.333333 458.885708
  L 516.666667 494.438772
  L 520.000000 380.418085
  L 523.333333 380.418085
  L 526.666667 438.486300
  L 530.000000 417.644763
  L 533.333333 428.217022
  L 536.666667 528.660569
  L 540.000000 387.332208
  L 543.333333 485.414880
  L 546.666667 547.204569
  L 550.000000 430.592952
  L 553.333333 558.828847
  L 556.666667 485.641156
  L 560.000000 517.897883
  L 563.333333 574.632825
  L 566.666667 499.402547
  L 570.000000 470.045861
  L 573.333333 538.548077
  L 576.666667 580.000000
  L 580.000000 543.634061
  L 580.000000 116.365939
  L 576.666667 213.104215
  L 573.333333 149.498376
  L 570.000000 121.233696
  L 566.666667 101.171153
  L 563.333333 229.407048
  L 560.000000 80.000000
  L 556.666667 80.000000
  L 553.333333 160.597453
  L 550.000000 85.367175
  L 546.666667 80.000000
  L 543.333333 126.571829
  L 540.000000 80.000000
  L 536.666667 194.291727
  L 533.333333 80.000000
  L 530.000000 95.466546
  L 526.666667 131.674726
  L 523.333333 80.000000
  L 520.000000 80.000000
  L 516.666667 142.654414
  L 513.333333 105.087710
  L 510.000000 142.654414
  L 506.666667 116.680028
  L 503.333333 98.166631
  L 500.000000 81.128889
  L 496.666667 171.176488
  L 493.333333 121.233696
  L 490.000000 88.182881
  L 486.666667 114.928994
  L 483.333333 149.745477
  L 480.000000 157.822806
  L 476.666667 158.572792
  L 473.333333 80.000000
  L 470.000000 101.171153
  L 466.666667 109.380183
  L 463.333333 126.571829
  L 460.000000 93.153294
  L 456.666667 116.680028
  L 453.333333 81.128889
  L 450.000000 103.852269
  L 446.666667 80.000000
  L 443.333333 164.903313
  L 440.000000 124.911255
  L 436.666667 106.432467
  L 433.333333 109.556633
  L 430.000000 93.153294
  L 426.666667 91.275280
  L 423.333333 135.676715
  L 420.000000 131.674726
  L 416.666667 112.766398
  L 413.333333 126.782284
  L 410.000000 194.291727
  L 406.666667 149.620886
  L 403.333333 113.424867
  L 400.000000 152.980906
  L 396.666667 180.016482
  L 393.333333 132.882242
  L 390.000000 98.166631
  L 386.666667 106.432467
  L 383.333333 181.838348
  L 380.000000 80.000000
  L 376.666667 116.680028
  L 373.333333 101.337726
  L 370.000000 152.980906
  L 366.666667 160.597453
  L 363.333333 122.795301
  L 360.000000 194.291727
  L 356.666667 105.087710
  L 353.333333 128.106780
  L 350.000000 135.676715
  L 346.666667 121.233696
  L 343.333333 135.676715
  L 340.000000 95.466546
  L 336.666667 142.654414
  L 333.333333 95.466546
  L 330.000000 185.578764
  L 326.666667 131.339431
  L 323.333333 201.916858
  L 320.000000 119.286946
  L 316.666667 121.451923
  L 313.333333 119.286946
  L 310.000000 109.556633
  L 306.666667 83.049063
  L 303.333333 126.782284
  L 300.000000 105.087710
  L 296.666667 198.265413
  L 293.333333 145.300953
  L 290.000000 126.782284
  L 286.666667 187.841369
  L 283.333333 177.931953
  L 280.000000 109.380183
  L 276.666667 101.582358
  L 273.333333 139.598992
  L 270.000000 91.160427
  L 266.666667 116.680028
  L 263.333333 185.578764
  L 260.000000 136.581561
  L 256.666667 91.627568
  L 253.333333 110.961923
  L 250.000000 168.042603
  L 246.666667 158.572792
  L 243.333333 124.911255
  L 240.000000 152.980906
  L 236.666667 95.466546
  L 233.333333 93.153294
  L 230.000000 83.049063
  L 226.666667 128.106780
  L 223.333333 101.337726
  L 220.000000 83.049063
  L 216.666667 80.000000
  L 213.333333 109.380183
  L 210.000000 194.291727
  L 206.666667 80.000000
  L 203.333333 132.882242
  L 200.000000 198.265413
  L 196.666667 148.013474
  L 193.333333 126.571829
  L 190.000000 168.042603
  L 186.666667 140.187931
  L 183.333333 105.087710
  L 180.000000 80.000000
  L 176.666667 171.176488
  L 173.333333 143.373774
  L 170.000000 110.961923
  L 166.666667 83.049063
  L 163.333333 98.166631
  L 160.000000 172.115043
  L 156.666667 198.265413
  L 153.333333 132.882242
  L 150.000000 96.208790
  L 146.666667 124.911255
  L 143.333333 126.782284
  L 140.000000 98.166631
  L 136.666667 145.300953
  L 133.333333 87.934153
  L 130.000000 95.466546
  L 126.666667 109.380183
  L 123.333333 98.166631
  L 120.000000 176.784944
  L 116.666667 95.466546
  L 113.333333 121.233696
  L 110.000000 140.187931
  L 106.666667 152.980906
  L 103.333333 149.745477
  L 100.000000 116.680028
  L 96.666667 112.766398
  L 93.333333 101.582358
  L 90.000000 124.911255
  L 86.666667 88.182881
  L 83.333333 171.176488
Z" fill="rgb(248,118,109)" fill-opacity="0.2"/>
<path d="M 83.333333 538.548077
  L 86.666667 452.662095
  L 90.000000 479.611754
  L 93.333333 465.708273
  L 96.666667 501.900342
  L 100.000000 485.414880
  L 103.333333 479.611754
  L 106.666667 514.699047
  L 110.000000 501.900342
  L 113.333333 472.158631
  L 116.666667 545.071006
  L 120.000000 416.603239
  L 123.333333 479.611754
  L 126.666667 474.791116
  L 130.000000 417.747626
  L 133.333333 438.486300
  L 136.666667 427.826162
  L 140.000000 494.438772
  L 143.333333 417.644763
  L 146.666667 399.827701
  L 150.000000 469.744002
  L 153.333333 444.470626
  L 156.666667 429.786386
  L 160.000000 391.613080
  L 163.333333 458.885708
  L 166.666667 438.486300
  L 170.000000 400.400411
  L 173.333333 474.791116
  L 176.666667 455.706602
  L 180.000000 396.707488
  L 183.333333 395.393698
  L 186.666667 485.414880
  L 190.000000 429.786386
  L 193.333333 452.662095
  L 196.666667 368.085274
  L 200.000000 500.190385
  L 203.333333 507.019094
  L 206.666667 465.501365
  L 210.000000 407.819055
  L 213.333333 430.413314
  L 216.666667 427.826162
  L 220.000000 487.884957
  L 223.333333 495.096687
  L 226.666667 511.986526
  L 230.000000 458.885708
  L 233.333333 405.735464
  L 236.666667 495.096687
  L 240.000000 455.706602
  L 243.333333 416.603239
  L 246.666667 407.047363
  L 250.000000 380.418085
  L 253.333333 533.217716
  L 256.666667 449.773101
  L 260.000000 452.662095
  L 263.333333 501.900342
  L 266.666667 418.053410
  L 270.000000 444.128203
  L 273.333333 474.421236
  L 276.666667 523.418439
  L 280.000000 465.708273
  L 283.333333 444.128203
  L 286.666667 491.957397
  L 290.000000 495.096687
  L 293.333333 428.887778
  L 296.666667 470.045861
  L 300.000000 495.096687
  L 303.333333 442.313109
  L 306.666667 444.128203
  L 310.000000 442.313109
  L 313.333333 451.601832
  L 316.666667 491.957397
  L 320.000000 491.957397
  L 323.333333 428.887778
  L 326.666667 417.261360
  L 330.000000 396.707488
  L 333.333333 417.644763
  L 336.666667 438.486300
  L 340.000000 444.128203
  L 343.333333 342.522204
  L 346.666667 465.501365
  L 350.000000 465.708273
  L 353.333333 449.773101
  L 356.666667 417.644763
  L 360.000000 417.644763
  L 363.333333 458.083142
  L 366.666667 399.170852
  L 370.000000 494.438772
  L 373.333333 438.486300
  L 376.666667 458.079588
  L 380.000000 485.414880
  L 383.333333 418.041970
  L 386.666667 428.217022
  L 390.000000 510.501624
  L 393.333333 469.744002
  L 396.666667 462.145213
  L 400.000000 418.053410
  L 403.333333 462.145213
  L 406.666667 556.147731
  L 410.000000 495.096687
  L 413.333333 580.000000
  L 416.666667 485.414880
  L 420.000000 408.208776
  L 423.333333 391.613080
  L 426.666667 405.735464
  L 430.000000 461.734587
  L 433.333333 479.611754
  L 436.666667 474.421236
  L 440.000000 501.427208
  L 443.333333 416.603239
  L 446.666667 470.045861
  L 450.000000 418.053410
  L 453.333333 444.128203
  L 456.666667 444.128203
  L 460.000000 455.706602
  L 463.333333 374.420104
  L 466.666667 458.885708
  L 470.000000 519.812069
  L 473.333333 538.548077
  L 476.666667 470.045861
  L 480.000000 538.548077
  L 483.333333 495.096687
  L 486.666667 517.345586
  L 490.000000 499.402547
  L 493.333333 502.177194
  L 496.666667 405.735464
  L 500.000000 369.978757
  L 503.333333 491.957397
  L 506.666667 554.912290
  L 510.000000 428.217022
  L 513.333333 510.254523
  L 516.666667 488.921648
  L 520.000000 452.662095
  L 523.333333 501.900342
  L 526.666667 430.592952
  L 530.000000 530.537122
  L 533.333333 564.122878
  L 536.666667 482.068047
  L 540.000000 485.414880
  L 543.333333 442.313109
  L 546.666667 543.319972
  L 550.000000 403.644371
  L 553.333333 502.177194
  L 556.666667 442.313109
  L 560.000000 461.630266
  L 563.333333 387.332208
  L 566.666667 519.586907
  L 570.000000 458.885708
  L 573.333333 558.828847
  L 576.666667 485.414880
  L 580.000000 559.685352
  L 580.000000 100.314648
  L 576.666667 126.571829
  L 573.333333 160.597453
  L 570.000000 105.087710
  L 566.666667 140.413093
  L 563.333333 80.000000
  L 560.000000 165.931235
  L 556.666667 112.766398
  L 553.333333 157.822806
  L 550.000000 81.128889
  L 546.666667 204.293398
  L 543.333333 112.766398
  L 540.000000 126.571829
  L 536.666667 158.572792
  L 533.333333 180.016482
  L 530.000000 129.462878
  L 526.666667 85.367175
  L 523.333333 132.882242
  L 520.000000 126.782284
  L 516.666667 187.841369
  L 513.333333 149.745477
  L 510.000000 80.000000
  L 506.666667 201.114292
  L 503.333333 114.928994
  L 500.000000 80.000000
  L 496.666667 93.153294
  L 493.333333 157.822806
  L 490.000000 101.171153
  L 486.666667 165.561228
  L 483.333333 164.903313
  L 480.000000 149.498376
  L 476.666667 121.233696
  L 473.333333 149.498376
  L 470.000000 198.265413
  L 466.666667 105.087710
  L 463.333333 87.934153
  L 460.000000 116.680028
  L 456.666667 101.337726
  L 453.333333 101.337726
  L 450.000000 106.432467
  L 446.666667 121.233696
  L 443.333333 83.049063
  L 440.000000 177.931953
  L 436.666667 145.300953
  L 433.333333 136.581561
  L 430.000000 140.187931
  L 426.666667 93.153294
  L 423.333333 80.000000
  L 420.000000 122.037224
  L 416.666667 126.571829
  L 413.333333 213.104215
  L 410.000000 164.903313
  L 406.666667 252.952637
  L 403.333333 91.627568
  L 400.000000 106.432467
  L 396.666667 91.627568
  L 393.333333 152.980906
  L 390.000000 121.451923
  L 386.666667 80.000000
  L 383.333333 116.183466
  L 380.000000 126.571829
  L 376.666667 171.458209
  L 373.333333 131.674726
  L 370.000000 142.654414
  L 366.666667 119.442277
  L 363.333333 148.013474
  L 360.000000 95.466546
  L 356.666667 95.466546
  L 353.333333 135.676715
  L 350.000000 131.339431
  L 346.666667 159.809615
  L 343.333333 80.000000
  L 340.000000 101.337726
  L 336.666667 131.674726
  L 333.333333 95.466546
  L 330.000000 101.582358
  L 326.666667 132.771074
  L 323.333333 119.286946
  L 320.000000 114.928994
  L 316.666667 114.928994
  L 313.333333 161.269211
  L 310.000000 112.766398
  L 306.666667 101.337726
  L 303.333333 112.766398
  L 300.000000 164.903313
  L 296.666667 121.233696
  L 293.333333 119.286946
  L 290.000000 164.903313
  L 286.666667 114.928994
  L 283.333333 101.337726
  L 280.000000 131.339431
  L 276.666667 180.388246
  L 273.333333 145.300953
  L 270.000000 101.337726
  L 266.666667 106.432467
  L 263.333333 132.882242
  L 260.000000 126.782284
  L 256.666667 135.676715
  L 253.333333 207.337905
  L 250.000000 80.000000
  L 246.666667 103.852269
  L 243.333333 83.049063
  L 240.000000 116.680028
  L 236.666667 164.903313
  L 233.333333 93.153294
  L 230.000000 105.087710
  L 226.666667 201.916858
  L 223.333333 164.903313
  L 220.000000 151.130944
  L 216.666667 128.106780
  L 213.333333 98.166631
  L 210.000000 113.424867
  L 206.666667 159.809615
  L 203.333333 190.255998
  L 200.000000 194.498635
  L 196.666667 80.000000
  L 193.333333 126.782284
  L 190.000000 109.380183
  L 186.666667 126.571829
  L 183.333333 80.000000
  L 180.000000 101.582358
  L 176.666667 116.680028
  L 173.333333 109.556633
  L 170.000000 80.000000
  L 166.666667 131.674726
  L 163.333333 105.087710
  L 160.000000 80.000000
  L 156.666667 109.380183
  L 153.333333 150.652374
  L 150.000000 152.980906
  L 146.666667 127.144697
  L 143.333333 95.466546
  L 140.000000 142.654414
  L 136.666667 128.106780
  L 133.333333 131.674726
  L 130.000000 124.911255
  L 126.666667 109.556633
  L 123.333333 136.581561
  L 120.000000 83.049063
  L 116.666667 168.042603
  L 113.333333 171.078352
  L 110.000000 132.882242
  L 106.666667 185.578764
  L 103.333333 136.581561
  L 100.000000 126.571829
  L 96.666667 132.882242
  L 93.333333 131.339431
  L 90.000000 136.581561
  L 86.666667 126.782284
  L 83.333333 149.498376
Z" fill="rgb(0,191,196)" fill-opacity="0.2"/>
<path d="M 83.333333 330.000000
  L 86.666667 191.111111
  L 90.000000 237.894737
  L 93.333333 197.647059
  L 96.666667 233.846154
  L 100.000000 246.666667
  L 103.333333 330.000000
  L 106.666667 298.750000
  L 110.000000 280.000000
  L 113.333333 261.818182
  L 116.666667 195.384615
  L 120.000000 330.000000
  L 123.333333 205.000000
  L 126.666667 222.857143
  L 130.000000 195.384615
  L 133.333333 168.235294
  L 136.666667 294.285714
  L 140.000000 205.000000
  L 143.333333 258.571429
  L 146.666667 237.894737
  L 150.000000 180.000000
  L 153.333333 302.222222
  L 156.666667 380.000000
  L 160.000000 349.230769
  L 163.333333 205.000000
  L 166.666667 170.909091
  L 170.000000 211.578947
  L 173.333333 253.076923
  L 176.666667 330.000000
  L 180.000000 142.500000
  L 183.333333 230.000000
  L 186.666667 280.000000
  L 190.000000 392.500000
  L 193.333333 280.000000
  L 196.666667 285.882353
  L 200.000000 380.000000
  L 203.333333 302.222222
  L 206.666667 142.500000
  L 210.000000 387.692308
  L 213.333333 222.857143
  L 216.666667 163.333333
  L 220.000000 170.909091
  L 223.333333 216.363636
  L 226.666667 246.666667
  L 230.000000 170.909091
  L 233.333333 187.142857
  L 236.666667 195.384615
  L 240.000000 298.750000
  L 243.333333 237.894737
  L 246.666667 313.333333
  L 250.000000 392.500000
  L 253.333333 211.578947
  L 256.666667 205.000000
  L 260.000000 288.333333
  L 263.333333 365.714286
  L 266.666667 246.666667
  L 270.000000 180.000000
  L 273.333333 264.210526
  L 276.666667 197.647059
  L 280.000000 222.857143
  L 283.333333 346.666667
  L 286.666667 343.157895
  L 290.000000 258.571429
  L 293.333333 294.285714
  L 296.666667 380.000000
  L 300.000000 230.000000
  L 303.333333 258.571429
  L 306.666667 170.909091
  L 310.000000 246.666667
  L 313.333333 236.250000
  L 316.666667 294.285714
  L 320.000000 236.250000
  L 323.333333 374.117647
  L 326.666667 272.307692
  L 330.000000 365.714286
  L 333.333333 195.384615
  L 336.666667 307.272727
  L 340.000000 195.384615
  L 343.333333 267.500000
  L 346.666667 261.818182
  L 350.000000 267.500000
  L 353.333333 246.666667
  L 356.666667 230.000000
  L 360.000000 387.692308
  L 363.333333 246.666667
  L 366.666667 413.333333
  L 370.000000 298.750000
  L 373.333333 216.363636
  L 376.666667 246.666667
  L 380.000000 151.428571
  L 383.333333 330.000000
  L 386.666667 213.333333
  L 390.000000 205.000000
  L 393.333333 302.222222
  L 396.666667 437.142857
  L 400.000000 298.750000
  L 403.333333 218.888889
  L 406.666667 267.500000
  L 410.000000 387.692308
  L 413.333333 258.571429
  L 416.666667 233.846154
  L 420.000000 256.470588
  L 423.333333 267.500000
  L 426.666667 246.666667
  L 430.000000 187.142857
  L 433.333333 246.666667
  L 436.666667 213.333333
  L 440.000000 237.894737
  L 443.333333 330.000000
  L 446.666667 142.500000
  L 450.000000 205.000000
  L 453.333333 163.333333
  L 456.666667 246.666667
  L 460.000000 187.142857
  L 463.333333 280.000000
  L 466.666667 222.857143
  L 470.000000 246.666667
  L 473.333333 115.714286
  L 476.666667 313.333333
  L 480.000000 330.000000
  L 483.333333 330.000000
  L 486.666667 267.500000
  L 490.000000 191.111111
  L 493.333333 261.818182
  L 496.666667 330.000000
  L 500.000000 163.333333
  L 503.333333 205.000000
  L 506.666667 246.666667
  L 510.000000 307.272727
  L 513.333333 230.000000
  L 516.666667 307.272727
  L 520.000000 151.428571
  L 523.333333 151.428571
  L 526.666667 256.470588
  L 530.000000 195.384615
  L 533.333333 80.000000
  L 536.666667 387.692308
  L 540.000000 125.454545
  L 543.333333 280.000000
  L 546.666667 80.000000
  L 550.000000 180.000000
  L 553.333333 413.333333
  L 556.666667 180.000000
  L 560.000000 80.000000
  L 563.333333 480.000000
  L 566.666667 246.666667
  L 570.000000 261.818182
  L 573.333333 365.714286
  L 576.666667 508.571429
  L 580.000000 330.000000
" stroke="rgb(248,118,109)" stroke-width="2" fill-opacity="0"/>
<path d="M 83.333333 365.714286
  L 86.666667 258.571429
  L 90.000000 288.333333
  L 93.333333 272.307692
  L 96.666667 302.222222
  L 100.000000 280.000000
  L 103.333333 288.333333
  L 106.666667 365.714286
  L 110.000000 302.222222
  L 113.333333 316.842105
  L 116.666667 392.500000
  L 120.000000 170.909091
  L 123.333333 288.333333
  L 126.666667 246.666667
  L 130.000000 237.894737
  L 133.333333 256.470588
  L 136.666667 246.666667
  L 140.000000 307.272727
  L 143.333333 195.384615
  L 146.666667 232.173913
  L 150.000000 298.750000
  L 153.333333 280.000000
  L 156.666667 222.857143
  L 160.000000 156.923077
  L 163.333333 230.000000
  L 166.666667 256.470588
  L 170.000000 130.000000
  L 173.333333 246.666667
  L 176.666667 246.666667
  L 180.000000 197.647059
  L 183.333333 80.000000
  L 186.666667 280.000000
  L 190.000000 222.857143
  L 193.333333 258.571429
  L 196.666667 80.000000
  L 200.000000 357.777778
  L 203.333333 361.250000
  L 206.666667 302.222222
  L 210.000000 218.888889
  L 213.333333 205.000000
  L 216.666667 246.666667
  L 220.000000 310.769231
  L 223.333333 330.000000
  L 226.666667 374.117647
  L 230.000000 230.000000
  L 233.333333 187.142857
  L 236.666667 330.000000
  L 240.000000 246.666667
  L 243.333333 170.909091
  L 246.666667 205.000000
  L 250.000000 151.428571
  L 253.333333 401.428571
  L 256.666667 267.500000
  L 260.000000 258.571429
  L 263.333333 302.222222
  L 266.666667 213.333333
  L 270.000000 216.363636
  L 273.333333 294.285714
  L 276.666667 371.666667
  L 280.000000 272.307692
  L 283.333333 216.363636
  L 286.666667 267.500000
  L 290.000000 330.000000
  L 293.333333 236.250000
  L 296.666667 261.818182
  L 300.000000 330.000000
  L 303.333333 233.846154
  L 306.666667 216.363636
  L 310.000000 233.846154
  L 313.333333 294.285714
  L 316.666667 267.500000
  L 320.000000 267.500000
  L 323.333333 236.250000
  L 326.666667 246.666667
  L 330.000000 197.647059
  L 333.333333 195.384615
  L 336.666667 256.470588
  L 340.000000 216.363636
  L 343.333333 135.555556
  L 346.666667 302.222222
  L 350.000000 272.307692
  L 353.333333 267.500000
  L 356.666667 195.384615
  L 360.000000 195.384615
  L 363.333333 285.882353
  L 366.666667 222.857143
  L 370.000000 307.272727
  L 373.333333 256.470588
  L 376.666667 307.272727
  L 380.000000 280.000000
  L 383.333333 227.058824
  L 386.666667 80.000000
  L 390.000000 294.285714
  L 393.333333 298.750000
  L 396.666667 205.000000
  L 400.000000 213.333333
  L 403.333333 205.000000
  L 406.666667 455.000000
  L 410.000000 330.000000
  L 413.333333 508.571429
  L 416.666667 280.000000
  L 420.000000 230.000000
  L 423.333333 156.923077
  L 426.666667 187.142857
  L 430.000000 280.000000
  L 433.333333 288.333333
  L 436.666667 294.285714
  L 440.000000 346.666667
  L 443.333333 170.909091
  L 446.666667 261.818182
  L 450.000000 213.333333
  L 453.333333 216.363636
  L 456.666667 216.363636
  L 460.000000 246.666667
  L 463.333333 168.235294
  L 466.666667 230.000000
  L 470.000000 380.000000
  L 473.333333 365.714286
  L 476.666667 261.818182
  L 480.000000 365.714286
  L 483.333333 330.000000
  L 486.666667 352.727273
  L 490.000000 246.666667
  L 493.333333 330.000000
  L 496.666667 187.142857
  L 500.000000 146.666667
  L 503.333333 267.500000
  L 506.666667 430.000000
  L 510.000000 80.000000
  L 513.333333 330.000000
  L 516.666667 343.157895
  L 520.000000 258.571429
  L 523.333333 302.222222
  L 526.666667 180.000000
  L 530.000000 330.000000
  L 533.333333 437.142857
  L 536.666667 313.333333
  L 540.000000 280.000000
  L 543.333333 233.846154
  L 546.666667 413.333333
  L 550.000000 163.333333
  L 553.333333 330.000000
  L 556.666667 233.846154
  L 560.000000 305.000000
  L 563.333333 125.454545
  L 566.666667 330.000000
  L 570.000000 230.000000
  L 573.333333 413.333333
  L 576.666667 280.000000
  L 580.000000 330.000000
" stroke="rgb(0,191,196)" stroke-width="2" fill-opacity="0"/>
<rect x="590" y="310" width="20" height="20" fill="rgb(248,118,109)" />
<text x="615" y="320" text-anchor="start" dominant-baseline="middle">#1</text>
<rect x="590" y="330" width="20" height="20" fill="rgb(0,191,196)" />
<text x="615" y="340" text-anchor="start" dominant-baseline="middle">#2</text>
</svg>
